<svg width="34" height="13" viewBox="0 0 34 13" fill="none" xmlns="http://www.w3.org/2000/svg">
<path d="M1.316 12C1.124 12.056 0.936 12.084 0.752 12.084C0.552 12.084 0.368 12.056 0.2 12V3.336H2.9C3.924 3.336 4.704 3.564 5.24 4.02C5.784 4.476 6.056 5.112 6.056 5.928C6.056 6.816 5.76 7.508 5.168 8.004C4.584 8.5 3.792 8.748 2.792 8.748H1.316V12ZM2.9 4.368H1.316V7.728H2.684C3.412 7.728 3.964 7.58 4.34 7.284C4.716 6.988 4.904 6.548 4.904 5.964C4.904 4.9 4.236 4.368 2.9 4.368ZM9.13559 12.168C8.63159 12.168 8.18759 12.048 7.80359 11.808C7.42759 11.568 7.13159 11.232 6.91559 10.8C6.70759 10.368 6.60359 9.872 6.60359 9.312C6.60359 8.704 6.72359 8.164 6.96359 7.692C7.20359 7.22 7.52759 6.848 7.93559 6.576C8.35159 6.304 8.82359 6.168 9.35159 6.168C9.63159 6.168 9.90759 6.224 10.1796 6.336C10.4516 6.44 10.6796 6.584 10.8636 6.768V6.276C10.9356 6.252 11.0196 6.232 11.1156 6.216C11.2116 6.2 11.3116 6.192 11.4156 6.192C11.6076 6.192 11.7876 6.22 11.9556 6.276V9.9C11.9556 10.364 12.0156 10.688 12.1356 10.872C12.2636 11.048 12.4476 11.136 12.6876 11.136C12.7996 11.136 12.8836 11.184 12.9396 11.28C13.0036 11.376 13.0356 11.504 13.0356 11.664C13.0356 11.792 12.9996 11.908 12.9276 12.012C12.8636 12.116 12.7556 12.168 12.6036 12.168C12.2756 12.168 11.9756 12.092 11.7036 11.94C11.4316 11.788 11.2236 11.548 11.0796 11.22C10.8476 11.516 10.5636 11.748 10.2276 11.916C9.89959 12.084 9.53559 12.168 9.13559 12.168ZM7.71959 9.312C7.71959 9.88 7.84759 10.328 8.10359 10.656C8.36759 10.976 8.72759 11.136 9.18359 11.136C9.68759 11.136 10.0916 10.952 10.3956 10.584C10.7076 10.208 10.8636 9.716 10.8636 9.108V7.92C10.7036 7.704 10.4996 7.532 10.2516 7.404C10.0036 7.268 9.74759 7.2 9.48359 7.2C9.13959 7.2 8.83559 7.292 8.57159 7.476C8.30759 7.66 8.09959 7.912 7.94759 8.232C7.79559 8.544 7.71959 8.904 7.71959 9.312ZM12.6872 11.136C12.8552 11.136 13.0352 11.084 13.2272 10.98C13.4192 10.876 13.5992 10.716 13.7672 10.5C13.9992 10.18 14.1592 9.804 14.2472 9.372C14.3432 8.94 14.3912 8.52 14.3912 8.112V6.336C14.4632 6.312 14.5472 6.292 14.6432 6.276C14.7392 6.26 14.8392 6.252 14.9432 6.252C15.1272 6.252 15.3072 6.28 15.4832 6.336V9.108C15.4832 9.804 15.5952 10.312 15.8192 10.632C16.0432 10.944 16.3952 11.1 16.8752 11.1C18.0192 11.1 18.5912 10.264 18.5912 8.592V6.336C18.6552 6.312 18.7352 6.292 18.8312 6.276C18.9272 6.26 19.0272 6.252 19.1312 6.252C19.3232 6.252 19.5072 6.28 19.6832 6.336V9.792C19.6832 10.216 19.7472 10.548 19.8752 10.788C20.0112 11.02 20.2352 11.136 20.5472 11.136C20.6832 11.136 20.7752 11.192 20.8232 11.304C20.8712 11.416 20.8952 11.536 20.8952 11.664C20.8952 11.792 20.8592 11.908 20.7872 12.012C20.7232 12.116 20.6152 12.168 20.4632 12.168C19.6952 12.168 19.1752 11.832 18.9032 11.16C18.6792 11.488 18.3912 11.74 18.0392 11.916C17.6872 12.084 17.2712 12.168 16.7912 12.168C15.7752 12.168 15.0792 11.736 14.7032 10.872C14.5752 11.104 14.4312 11.3 14.2712 11.46C14.0552 11.676 13.8032 11.848 13.5152 11.976C13.2352 12.104 12.9312 12.168 12.6032 12.168C12.4912 12.168 12.4072 12.112 12.3512 12C12.2872 11.896 12.2552 11.78 12.2552 11.652C12.2552 11.516 12.2912 11.396 12.3632 11.292C12.4272 11.188 12.5352 11.136 12.6872 11.136ZM20.4665 12.168C20.3625 12.168 20.2785 12.12 20.2145 12.024C20.1505 11.928 20.1185 11.804 20.1185 11.652C20.1185 11.492 20.1585 11.368 20.2385 11.28C20.3105 11.184 20.4105 11.136 20.5385 11.136C20.8105 11.136 21.1065 11.032 21.4265 10.824C21.7465 10.616 22.0505 10.332 22.3385 9.972C22.2905 9.684 22.2545 9.332 22.2305 8.916C22.2065 8.5 22.1905 7.98 22.1825 7.356C22.1745 6.732 22.1705 5.964 22.1705 5.052V3.552C22.1705 3.176 22.1825 2.832 22.2065 2.52C22.2385 2.208 22.2905 1.928 22.3625 1.68C22.5145 1.16 22.7385 0.779999 23.0345 0.539999C23.3385 0.291999 23.6985 0.167999 24.1145 0.167999C24.7145 0.167999 25.1825 0.443999 25.5185 0.995999C25.8625 1.54 26.0345 2.3 26.0345 3.276C26.0345 4.428 25.8105 5.612 25.3625 6.828C24.9145 8.036 24.2745 9.192 23.4425 10.296C23.4505 10.312 23.4585 10.332 23.4665 10.356C23.5705 10.612 23.7145 10.808 23.8985 10.944C24.0905 11.08 24.3345 11.148 24.6305 11.148C24.7425 11.148 24.8305 11.196 24.8945 11.292C24.9665 11.38 25.0025 11.504 25.0025 11.664C25.0025 12 24.8545 12.168 24.5585 12.168C24.0785 12.168 23.6905 12.068 23.3945 11.868C23.0985 11.668 22.8705 11.416 22.7105 11.112C22.0225 11.816 21.2745 12.168 20.4665 12.168ZM23.1905 5.124C23.1905 6.076 23.1905 6.848 23.1905 7.44C23.1985 8.032 23.2105 8.512 23.2265 8.88C24.4185 6.904 25.0145 5.032 25.0145 3.264C25.0145 2.584 24.9345 2.064 24.7745 1.704C24.6225 1.344 24.3985 1.164 24.1025 1.164C23.8065 1.164 23.5785 1.352 23.4185 1.728C23.2665 2.104 23.1905 2.756 23.1905 3.684V5.124ZM24.5874 12.168C24.4834 12.168 24.3994 12.12 24.3354 12.024C24.2634 11.928 24.2274 11.804 24.2274 11.652C24.2274 11.5 24.2674 11.38 24.3474 11.292C24.4274 11.196 24.5314 11.148 24.6594 11.148C25.1154 11.148 25.5514 11.032 25.9674 10.8C26.3914 10.568 26.7554 10.264 27.0594 9.888C27.0194 9.632 26.9874 9.304 26.9634 8.904C26.9394 8.496 26.9194 7.98 26.9034 7.356C26.8954 6.732 26.8914 5.964 26.8914 5.052V3.552C26.8914 3.176 26.9034 2.832 26.9274 2.52C26.9594 2.208 27.0114 1.928 27.0834 1.68C27.2354 1.16 27.4594 0.779999 27.7554 0.539999C28.0594 0.291999 28.4194 0.167999 28.8354 0.167999C29.4354 0.167999 29.9034 0.443999 30.2394 0.995999C30.5834 1.54 30.7554 2.3 30.7554 3.276C30.7554 4.42 30.5314 5.6 30.0834 6.816C29.6434 8.024 29.0074 9.176 28.1754 10.272C28.4394 10.856 28.8514 11.148 29.4114 11.148C29.5314 11.148 29.6634 11.128 29.8074 11.088C29.9594 11.048 30.1074 10.984 30.2514 10.896C30.3634 10.976 30.4594 11.092 30.5394 11.244C30.6194 11.388 30.6674 11.544 30.6834 11.712C30.4674 11.888 30.2474 12.008 30.0234 12.072C29.8074 12.136 29.5794 12.168 29.3394 12.168C28.9154 12.168 28.5434 12.068 28.2234 11.868C27.9114 11.668 27.6514 11.38 27.4434 11.004C27.0194 11.404 26.5674 11.7 26.0874 11.892C25.6074 12.076 25.1074 12.168 24.5874 12.168ZM27.9114 3.684V5.124C27.9114 6.092 27.9114 6.876 27.9114 7.476C27.9194 8.068 27.9314 8.536 27.9474 8.88C29.1394 6.904 29.7354 5.032 29.7354 3.264C29.7354 2.584 29.6554 2.064 29.4954 1.704C29.3434 1.344 29.1194 1.164 28.8234 1.164C28.5274 1.164 28.2994 1.352 28.1394 1.728C27.9874 2.104 27.9114 2.756 27.9114 3.684ZM32.8011 12.168C32.5771 12.168 32.3851 12.088 32.2251 11.928C32.0651 11.76 31.9851 11.564 31.9851 11.34C31.9851 11.116 32.0651 10.924 32.2251 10.764C32.3851 10.604 32.5771 10.524 32.8011 10.524C33.0251 10.524 33.2171 10.604 33.3771 10.764C33.5451 10.924 33.6291 11.116 33.6291 11.34C33.6291 11.564 33.5451 11.76 33.3771 11.928C33.2171 12.088 33.0251 12.168 32.8011 12.168Z" fill="#00AAFF"/>
</svg>
