<svg width="18" height="13" viewBox="0 0 18 13" fill="none" xmlns="http://www.w3.org/2000/svg">
<path d="M1.316 12C1.124 12.056 0.936 12.084 0.752 12.084C0.552 12.084 0.368 12.056 0.2 12V3.336H2.9C3.924 3.336 4.704 3.564 5.24 4.02C5.784 4.476 6.056 5.112 6.056 5.928C6.056 6.816 5.76 7.508 5.168 8.004C4.584 8.5 3.792 8.748 2.792 8.748H1.316V12ZM2.9 4.368H1.316V7.728H2.684C3.412 7.728 3.964 7.58 4.34 7.284C4.716 6.988 4.904 6.548 4.904 5.964C4.904 4.9 4.236 4.368 2.9 4.368ZM9.43559 12.168C8.89159 12.168 8.40359 12.04 7.97159 11.784C7.54759 11.52 7.21159 11.16 6.96359 10.704C6.72359 10.248 6.60359 9.732 6.60359 9.156C6.60359 8.58 6.72759 8.068 6.97559 7.62C7.22359 7.172 7.55959 6.82 7.98359 6.564C8.41559 6.3 8.89959 6.168 9.43559 6.168C9.97159 6.168 10.4516 6.3 10.8756 6.564C11.2996 6.82 11.6316 7.172 11.8716 7.62C12.1196 8.068 12.2436 8.58 12.2436 9.156C12.2436 9.732 12.1196 10.248 11.8716 10.704C11.6316 11.16 11.2996 11.52 10.8756 11.784C10.4596 12.04 9.97959 12.168 9.43559 12.168ZM9.42359 11.136C9.93559 11.136 10.3436 10.956 10.6476 10.596C10.9596 10.236 11.1156 9.756 11.1156 9.156C11.1156 8.86 11.0716 8.588 10.9836 8.34C10.5036 8.324 10.0676 8.228 9.67559 8.052C9.29159 7.876 8.98759 7.636 8.76359 7.332C8.44359 7.468 8.19159 7.7 8.00759 8.028C7.82359 8.348 7.73159 8.732 7.73159 9.18C7.73159 9.764 7.88359 10.236 8.18759 10.596C8.49959 10.956 8.91159 11.136 9.42359 11.136ZM15.9484 12.168C15.4844 12.168 15.0844 12.048 14.7484 11.808C14.4124 11.568 14.1364 11.216 13.9204 10.752C13.8484 10.6 13.7844 10.424 13.7284 10.224C13.6804 10.016 13.6404 9.752 13.6084 9.432C13.5764 9.104 13.5524 8.68 13.5364 8.16C13.2564 8.232 12.9644 8.292 12.6604 8.34C12.3484 8.38 12.0684 8.4 11.8204 8.4C11.5404 8.4 11.3364 8.364 11.2084 8.292C11.0804 8.22 11.0164 8.08 11.0164 7.872C11.0164 7.728 11.0444 7.624 11.1004 7.56C11.1564 7.488 11.2204 7.452 11.2924 7.452H11.6164C11.9284 7.452 12.2444 7.428 12.5644 7.38C12.8764 7.324 13.1924 7.248 13.5124 7.152C13.5124 6.856 13.5084 6.536 13.5004 6.192C13.5004 5.84 13.5004 5.46 13.5004 5.052V3.552C13.5004 3.176 13.5124 2.832 13.5364 2.52C13.5684 2.208 13.6204 1.928 13.6924 1.68C13.8444 1.16 14.0684 0.779999 14.3644 0.539999C14.6684 0.291999 15.0284 0.167999 15.4444 0.167999C16.0444 0.167999 16.5124 0.443999 16.8484 0.995999C17.1924 1.54 17.3644 2.3 17.3644 3.276C17.3644 4.012 17.2404 4.684 16.9924 5.292C16.7524 5.892 16.4204 6.412 15.9964 6.852C15.5724 7.284 15.0844 7.62 14.5324 7.86C14.5404 8.38 14.5484 8.788 14.5564 9.084C14.5724 9.372 14.5924 9.588 14.6164 9.732C14.6404 9.876 14.6724 9.996 14.7124 10.092C14.8404 10.436 15.0084 10.7 15.2164 10.884C15.4324 11.06 15.7004 11.148 16.0204 11.148C16.1404 11.148 16.2724 11.128 16.4164 11.088C16.5684 11.048 16.7164 10.984 16.8604 10.896C16.9724 10.976 17.0684 11.092 17.1484 11.244C17.2284 11.388 17.2764 11.544 17.2924 11.712C17.0764 11.888 16.8564 12.008 16.6324 12.072C16.4164 12.136 16.1884 12.168 15.9484 12.168ZM14.5204 5.124C14.5204 5.444 14.5204 5.744 14.5204 6.024C14.5204 6.296 14.5204 6.552 14.5204 6.792C15.0564 6.48 15.4924 6.016 15.8284 5.4C16.1724 4.776 16.3444 4.06 16.3444 3.252C16.3444 2.58 16.2644 2.064 16.1044 1.704C15.9524 1.344 15.7284 1.164 15.4324 1.164C15.1364 1.164 14.9084 1.352 14.7484 1.728C14.5964 2.104 14.5204 2.756 14.5204 3.684V5.124Z" fill="#00AAFF"/>
</svg>
